<?xml version="1.0" encoding="UTF-8"?>
<svg xmlns="http://www.w3.org/2000/svg" viewBox="0 0 32 32">
  <defs>
    <linearGradient id="g" x1="0" y1="0" x2="0" y2="1">
      <stop offset="0%" stop-color="#61FD7D"/>
      <stop offset="100%" stop-color="#25D366"/>
    </linearGradient>
  </defs>
  <circle cx="16" cy="16" r="16" fill="url(#g)"/>
  <path fill="#fff" d="M19.11 17.39c-.27-.14-1.6-.79-1.85-.88-.25-.09-.43-.14-.61.14-.18.27-.7.88-.86 1.06-.16.18-.32.2-.59.07-.27-.14-1.15-.42-2.2-1.34-.81-.72-1.36-1.6-1.52-1.88-.16-.27-.02-.42.12-.56.12-.12.27-.32.41-.47.14-.16.18-.27.27-.45.09-.18.05-.34-.02-.47-.07-.14-.61-1.47-.84-2.02-.22-.53-.45-.46-.61-.46h-.52c-.18 0-.47.07-.72.34-.25.27-.94.92-.94 2.24s.97 2.6 1.1 2.78c.14.18 1.9 2.88 4.6 4.05.64.28 1.14.45 1.53.58.64.2 1.22.17 1.67.1.51-.08 1.6-.65 1.83-1.28.23-.63.23-1.17.16-1.28-.07-.11-.25-.18-.52-.32z"/>
</svg>
