<svg viewBox="0 0 24 24" width="24" height="24" fill="currentColor" xmlns="http://www.w3.org/2000/svg">
<path d="M12 2.163c3.204 0 3.584.012 4.85.07 1.366.062 2.633.35 3.608 1.325.975.975 1.262 2.242 1.324 3.608.058 1.266.07 1.646.07 4.85s-.012 3.584-.07 4.85c-.062 1.366-.35 2.633-1.324 3.608-.975.975-2.242 1.262-3.608 1.324-1.266.058-1.646.07-4.85.07s-3.584-.012-4.85-.07c-1.366-.062-2.633-.35-3.608-1.324-.975-.975-1.262-2.242-1.324-3.608C2.175 15.584 2.163 15.204 2.163 12s.012-3.584.07-4.85c.062-1.366.35-2.633 1.324-3.608.975-.975 2.242-1.262 3.608-1.324C8.416 2.175 8.796 2.163 12 2.163zm0 1.838c-3.159 0-3.527.012-4.766.069-1.023.047-1.58.217-1.948.363-.49.19-.84.418-1.207.785-.367.367-.595.717-.785 1.207-.146.368-.316.925-.363 1.948-.057 1.239-.069 1.607-.069 4.766s.012 3.527.069 4.766c.047 1.023.217 1.58.363 1.948.19.49.418.84.785 1.207.367.367.717.595 1.207.785.368.146.925.316 1.948.363 1.239.057 1.607.069 4.766.069s3.527-.012 4.766-.069c1.023-.047 1.58-.217 1.948-.363.49-.19.84-.418 1.207-.785.367-.367.595-.717.785-1.207.146-.368.316-.925.363-1.948.057-1.239.069-1.607.069-4.766s-.012-3.527-.069-4.766c-.047-1.023-.217-1.58-.363-1.948-.19-.49-.418-.84-.785-1.207-.367-.367-.717-.595-1.207-.785-.368-.146-.925-.316-1.948-.363-1.239-.057-1.607-.069-4.766-.069zm0 3.89a5.946 5.946 0 110 11.892 5.946 5.946 0 010-11.892zm0 1.838a4.108 4.108 0 100 8.216 4.108 4.108 0 000-8.216zm5.99-1.538a1.386 1.386 0 110 2.772 1.386 1.386 0 010-2.772z"/></svg>